<svg xmlns="http://www.w3.org/2000/svg" viewBox="0 0 64 64">
  <defs>
    <clipPath id="planet"><circle cx="27" cy="38" r="19.5"/></clipPath>
    <radialGradient id="ocean" cx="0.36" cy="0.3" r="0.8">
      <stop offset="0" stop-color="#5fb4ff"/>
      <stop offset="0.55" stop-color="#1f6fd8"/>
      <stop offset="1" stop-color="#0c3b8f"/>
    </radialGradient>
    <linearGradient id="land" x1="0" y1="0" x2="1" y2="1">
      <stop offset="0" stop-color="#4ade80"/>
      <stop offset="1" stop-color="#15803d"/>
    </linearGradient>
    <radialGradient id="shade" cx="0.3" cy="0.25" r="0.9">
      <stop offset="0.45" stop-color="#000" stop-opacity="0"/>
      <stop offset="1" stop-color="#000" stop-opacity="0.45"/>
    </radialGradient>
    <linearGradient id="trail" x1="6" y1="56" x2="46" y2="17" gradientUnits="userSpaceOnUse">
      <stop offset="0" stop-color="#ff3b5c" stop-opacity="0"/>
      <stop offset="0.55" stop-color="#ff3b5c" stop-opacity="0.8"/>
      <stop offset="1" stop-color="#ff6b4a"/>
    </linearGradient>
  </defs>
  <circle cx="27" cy="38" r="19.5" fill="url(#ocean)"/>
  <g clip-path="url(#planet)" fill="url(#land)">
    <path d="M17 25.5c2.5-3 7-4.5 11-4 3 .4 5.5-.6 8.5 1 2.4 1.3 2.2 3.6.2 4.8-1.8 1.1-3.8.5-5.6 1.6-1.9 1.2-2.7 3.3-5.6 3.3-2.8 0-4.3-1.4-6.3-2.8-2-1.4-3.4-2.3-2.2-3.9Z"/>
    <path d="M20.5 33.5c3-1.8 7.5-2 10.8-.4 2.8 1.3 5.2.6 7.3 2.5 1.6 1.5.4 3.4-.9 5.1-1.7 2.3-2.4 5.6-4.4 8.6-1.4 2.1-3.1 3.6-4.6 2.6-2-1.4-1.8-4.7-2.8-7.4-.9-2.4-3.9-3.4-5-6.1-.7-1.8-.4-3.9-.4-4.9Z"/>
    <path d="M4 40.5c2.4-1.6 5.5-.8 6.6 1.6 1.2 2.7-.3 5.8-1.3 8.4-.8 2.2-2.4 3.6-3.8 2.8-1.6-1-1.4-4.2-1.7-7-.2-2.1-.6-4.8.2-5.8Z"/>
  </g>
  <circle cx="27" cy="38" r="19.5" fill="url(#shade)"/>
  <circle cx="27" cy="38" r="19.5" fill="none" stroke="#bae6fd" stroke-opacity="0.85" stroke-width="1.3"/>
  <path d="M5 57C14 37 28 22 44 17" fill="none" stroke="url(#trail)" stroke-width="5.5" stroke-linecap="round"/>
  <path transform="translate(49.5 15) rotate(73) scale(0.46) translate(-32 -32)" fill="#38bdf8" stroke="#05080f" stroke-width="3.5" stroke-linejoin="round" paint-order="stroke"
    d="M32 2.5c1.9 0 3 3.2 3 7.2V24l23 13.2c.7.4 1 1 1 1.7v1.8l-24-6.4V47c0 1.2-.1 2.3-.3 3.3L44 56.6v2.1l-10.9-3.2c-.3 1.5-.7 2.9-1.1 4-.4-1.1-.8-2.5-1.1-4L20 58.7v-2.1l9.3-6.3c-.2-1-.3-2.1-.3-3.3V34.3L5 40.7v-1.8c0-.7.3-1.3 1-1.7L29 24V9.7c0-4 1.1-7.2 3-7.2Z"/>
</svg>
